<?xml version="1.0" encoding="UTF-8"?>
<svg version="1.1" viewBox="0 0 1440 2024" width="1280" height="1280" xmlns="http://www.w3.org/2000/svg">
<path transform="translate(0)" d="m0 0h1440v2024h-1440z" fill="#EBCA37"/>
<path transform="translate(0)" d="m0 0h1440v397l-6 1h-1430l1 20 5 57 6 67 9 99 9 105 8 91 10 118 10 115 4 51 6 66 7 83 7 81 8 91 10 113 5 60 6 68 8 96 5 52 3 26 8 3 36 10 43 12 28 8 57 16 26 7 199 56 46 13 29 8 57 16 41 12 13 4 2 2h-716z" fill="#F9F9F8"/>
<path transform="translate(721,523)" d="m0 0h460l114 1 2 3-3 44-5 56-8 89-3 38-5 54-5 59-4 42-6 70-6 66-5 56-7 78-5 58-5 60-17 187-10 113-4 47-2 17-4 46-5 58-2 6-15 5-40 11-56 15-24 7-29 8-35 9-9 3-34 9-33 9-26 7-24 7-45 12-12 3-11 3-15 4-16 4-32 7-6 1-2-3-1-7-1-24v-140l-1-245v-73l1-366v-120l-1-168-1-95v-40l1-58 1-29z" fill="#FDDC2A"/>
<path transform="translate(778,697)" d="m0 0h434l13 1 1 2-1 18-1 17-3 30-4 41-4 48-2 2-192 1h-33l-52-1 1 242v35l12-3 35-6 70-10 62-10 66-10 9-2 5 1-1 14-4 51-8 84-7 78-5 53-5 56-3 28-3 35-5 54-4 41-1 15-1 3-8 3-48 13-39 11-44 12-68 19-98 27-39 11-23 6h-4l-1-4 1-159 4-3 25-7 74-20 35-10 58-16 28-8 10-2 4-29 7-63 9-87 2-25-12 1-45 7-55 9-127 20-6 1h-11v-613z" fill="#FAFAF9"/>
<path transform="translate(511,698)" d="m0 0h153l2 2 1 1008-10-2-75-21-42-11-99-27-58-16-48-13-55-15-40-11-7-3-1-1v-164l8 1 16 5 27 7 136 37 47 13 34 9 8 3-1-482v-258l1-59z" fill="#FAFAF9"/>
<path transform="translate(1439,412)" d="m0 0h1v1612h-712l2-2 33-10 56-16 51-14 88-25 47-13 51-14 30-9 27-7 25-7 19-6 55-15 67-19 34-9 11-132 9-104 7-83 7-79 8-93 8-92 5-60 6-67 6-74 5-54 7-82 3-35 7-80 14-164 5-56 5-57 5-54 4-43z" fill="#FAFAF9"/>
<path transform="translate(714,2)" d="m0 0h251l1 4-1 67h-181l1 31 181 1-1 165-1 1h-247l-4-1v-70l167-1 15-1 1-30h-182l-1-1v-163z"/>
<path transform="translate(661,2)" d="m0 0h12l1 1v267l-1 1h-188v-71l27-1h91v-171l1-25z"/>
<path transform="translate(715)" d="m0 0h245l-1 2-46 1h-197z" fill="#F6EDC7"/>
<path transform="translate(614)" d="m0 0h55l-1 2-7 1h-57v-1l9-1z" fill="#F4E8B3"/>
<path transform="translate(6,412)" d="m0 0h1l1 14 1 12v16h-2l-1-12-1-29z" fill="#F9D82D"/>
<path transform="translate(934,855)" d="m0 0 52 1v1h-50-3z" fill="#EBCA38"/>
</svg>
